<svg xmlns="http://www.w3.org/2000/svg" width="64" height="64" viewBox="0 0 64 64" role="img" aria-label="agent-chat">
<clipPath id="m52"><rect x="0" y="0" width="64" height="64" rx="17.7778"/></clipPath>
<g clip-path="url(#m52)">
<path d="M32.00 32.00L96.00 32.00L95.91 35.42Z" fill="#af3c3a" stroke="#af3c3a" stroke-width=".6"/>
<path d="M32.00 32.00L95.91 35.35L95.64 38.76Z" fill="#af3e32" stroke="#af3e32" stroke-width=".6"/>
<path d="M32.00 32.00L95.65 38.69L95.20 42.08Z" fill="#ae3f29" stroke="#ae3f29" stroke-width=".6"/>
<path d="M32.00 32.00L95.21 42.01L94.59 45.37Z" fill="#ae411f" stroke="#ae411f" stroke-width=".6"/>
<path d="M32.00 32.00L94.60 45.31L93.80 48.63Z" fill="#ad4212" stroke="#ad4212" stroke-width=".6"/>
<path d="M32.00 32.00L93.82 48.56L92.85 51.84Z" fill="#ab4400" stroke="#ab4400" stroke-width=".6"/>
<path d="M32.00 32.00L92.87 51.78L91.73 55.00Z" fill="#aa4700" stroke="#aa4700" stroke-width=".6"/>
<path d="M32.00 32.00L91.75 54.94L90.44 58.09Z" fill="#a84900" stroke="#a84900" stroke-width=".6"/>
<path d="M32.00 32.00L90.47 58.03L88.99 61.12Z" fill="#a64b00" stroke="#a64b00" stroke-width=".6"/>
<path d="M32.00 32.00L89.02 61.06L87.39 64.06Z" fill="#a44e00" stroke="#a44e00" stroke-width=".6"/>
<path d="M32.00 32.00L87.43 64.00L85.64 66.91Z" fill="#a15100" stroke="#a15100" stroke-width=".6"/>
<path d="M32.00 32.00L85.67 66.86L83.74 69.67Z" fill="#9e5300" stroke="#9e5300" stroke-width=".6"/>
<path d="M32.00 32.00L83.78 69.62L81.70 72.33Z" fill="#9b5600" stroke="#9b5600" stroke-width=".6"/>
<path d="M32.00 32.00L81.74 72.28L79.52 74.87Z" fill="#985900" stroke="#985900" stroke-width=".6"/>
<path d="M32.00 32.00L79.56 74.82L77.21 77.30Z" fill="#945c00" stroke="#945c00" stroke-width=".6"/>
<path d="M32.00 32.00L77.25 77.25L74.77 79.61Z" fill="#905e00" stroke="#905e00" stroke-width=".6"/>
<path d="M32.00 32.00L74.82 79.56L72.22 81.78Z" fill="#8b6100" stroke="#8b6100" stroke-width=".6"/>
<path d="M32.00 32.00L72.28 81.74L69.56 83.82Z" fill="#876400" stroke="#876400" stroke-width=".6"/>
<path d="M32.00 32.00L69.62 83.78L66.80 85.71Z" fill="#826600" stroke="#826600" stroke-width=".6"/>
<path d="M32.00 32.00L66.86 85.67L63.94 87.46Z" fill="#7d6900" stroke="#7d6900" stroke-width=".6"/>
<path d="M32.00 32.00L64.00 87.43L61.00 89.05Z" fill="#776b00" stroke="#776b00" stroke-width=".6"/>
<path d="M32.00 32.00L61.06 89.02L57.97 90.49Z" fill="#716e00" stroke="#716e00" stroke-width=".6"/>
<path d="M32.00 32.00L58.03 90.47L54.87 91.77Z" fill="#6b7000" stroke="#6b7000" stroke-width=".6"/>
<path d="M32.00 32.00L54.94 91.75L51.71 92.89Z" fill="#647200" stroke="#647200" stroke-width=".6"/>
<path d="M32.00 32.00L51.78 92.87L48.50 93.84Z" fill="#5d7400" stroke="#5d7400" stroke-width=".6"/>
<path d="M32.00 32.00L48.56 93.82L45.24 94.62Z" fill="#557600" stroke="#557600" stroke-width=".6"/>
<path d="M32.00 32.00L45.31 94.60L41.95 95.22Z" fill="#4d7800" stroke="#4d7800" stroke-width=".6"/>
<path d="M32.00 32.00L42.01 95.21L38.62 95.66Z" fill="#447a00" stroke="#447a00" stroke-width=".6"/>
<path d="M32.00 32.00L38.69 95.65L35.28 95.92Z" fill="#397b10" stroke="#397b10" stroke-width=".6"/>
<path d="M32.00 32.00L35.35 95.91L31.93 96.00Z" fill="#2c7d1f" stroke="#2c7d1f" stroke-width=".6"/>
<path d="M32.00 32.00L32.00 96.00L28.58 95.91Z" fill="#1b7e2a" stroke="#1b7e2a" stroke-width=".6"/>
<path d="M32.00 32.00L28.65 95.91L25.24 95.64Z" fill="#007f32" stroke="#007f32" stroke-width=".6"/>
<path d="M32.00 32.00L25.31 95.65L21.92 95.20Z" fill="#008039" stroke="#008039" stroke-width=".6"/>
<path d="M32.00 32.00L21.99 95.21L18.63 94.59Z" fill="#008141" stroke="#008141" stroke-width=".6"/>
<path d="M32.00 32.00L18.69 94.60L15.37 93.80Z" fill="#008147" stroke="#008147" stroke-width=".6"/>
<path d="M32.00 32.00L15.44 93.82L12.16 92.85Z" fill="#00824e" stroke="#00824e" stroke-width=".6"/>
<path d="M32.00 32.00L12.22 92.87L9.00 91.73Z" fill="#008254" stroke="#008254" stroke-width=".6"/>
<path d="M32.00 32.00L9.06 91.75L5.91 90.44Z" fill="#00835a" stroke="#00835a" stroke-width=".6"/>
<path d="M32.00 32.00L5.97 90.47L2.88 88.99Z" fill="#008361" stroke="#008361" stroke-width=".6"/>
<path d="M32.00 32.00L2.94 89.02L-0.06 87.39Z" fill="#008366" stroke="#008366" stroke-width=".6"/>
<path d="M32.00 32.00L0.00 87.43L-2.91 85.64Z" fill="#00836c" stroke="#00836c" stroke-width=".6"/>
<path d="M32.00 32.00L-2.86 85.67L-5.67 83.74Z" fill="#008272" stroke="#008272" stroke-width=".6"/>
<path d="M32.00 32.00L-5.62 83.78L-8.33 81.70Z" fill="#008277" stroke="#008277" stroke-width=".6"/>
<path d="M32.00 32.00L-8.28 81.74L-10.87 79.52Z" fill="#00827d" stroke="#00827d" stroke-width=".6"/>
<path d="M32.00 32.00L-10.82 79.56L-13.30 77.21Z" fill="#008182" stroke="#008182" stroke-width=".6"/>
<path d="M32.00 32.00L-13.25 77.25L-15.61 74.77Z" fill="#008087" stroke="#008087" stroke-width=".6"/>
<path d="M32.00 32.00L-15.56 74.82L-17.78 72.22Z" fill="#00808c" stroke="#00808c" stroke-width=".6"/>
<path d="M32.00 32.00L-17.74 72.28L-19.82 69.56Z" fill="#007f91" stroke="#007f91" stroke-width=".6"/>
<path d="M32.00 32.00L-19.78 69.62L-21.71 66.80Z" fill="#007e95" stroke="#007e95" stroke-width=".6"/>
<path d="M32.00 32.00L-21.67 66.86L-23.46 63.94Z" fill="#007d9a" stroke="#007d9a" stroke-width=".6"/>
<path d="M32.00 32.00L-23.43 64.00L-25.05 61.00Z" fill="#007b9e" stroke="#007b9e" stroke-width=".6"/>
<path d="M32.00 32.00L-25.02 61.06L-26.49 57.97Z" fill="#007aa2" stroke="#007aa2" stroke-width=".6"/>
<path d="M32.00 32.00L-26.47 58.03L-27.77 54.87Z" fill="#0079a6" stroke="#0079a6" stroke-width=".6"/>
<path d="M32.00 32.00L-27.75 54.94L-28.89 51.71Z" fill="#0077a9" stroke="#0077a9" stroke-width=".6"/>
<path d="M32.00 32.00L-28.87 51.78L-29.84 48.50Z" fill="#0076ad" stroke="#0076ad" stroke-width=".6"/>
<path d="M32.00 32.00L-29.82 48.56L-30.62 45.24Z" fill="#0074b0" stroke="#0074b0" stroke-width=".6"/>
<path d="M32.00 32.00L-30.60 45.31L-31.22 41.95Z" fill="#0072b2" stroke="#0072b2" stroke-width=".6"/>
<path d="M32.00 32.00L-31.21 42.01L-31.66 38.62Z" fill="#0070b5" stroke="#0070b5" stroke-width=".6"/>
<path d="M32.00 32.00L-31.65 38.69L-31.92 35.28Z" fill="#006fb7" stroke="#006fb7" stroke-width=".6"/>
<path d="M32.00 32.00L-31.91 35.35L-32.00 31.93Z" fill="#006db9" stroke="#006db9" stroke-width=".6"/>
<path d="M32.00 32.00L-32.00 32.00L-31.91 28.58Z" fill="#006bbb" stroke="#006bbb" stroke-width=".6"/>
<path d="M32.00 32.00L-31.91 28.65L-31.64 25.24Z" fill="#106abc" stroke="#106abc" stroke-width=".6"/>
<path d="M32.00 32.00L-31.65 25.31L-31.20 21.92Z" fill="#1d68bc" stroke="#1d68bc" stroke-width=".6"/>
<path d="M32.00 32.00L-31.21 21.99L-30.59 18.63Z" fill="#2767bd" stroke="#2767bd" stroke-width=".6"/>
<path d="M32.00 32.00L-30.60 18.69L-29.80 15.37Z" fill="#2e66be" stroke="#2e66be" stroke-width=".6"/>
<path d="M32.00 32.00L-29.82 15.44L-28.85 12.16Z" fill="#3564be" stroke="#3564be" stroke-width=".6"/>
<path d="M32.00 32.00L-28.87 12.22L-27.73 9.00Z" fill="#3b63be" stroke="#3b63be" stroke-width=".6"/>
<path d="M32.00 32.00L-27.75 9.06L-26.44 5.91Z" fill="#4062be" stroke="#4062be" stroke-width=".6"/>
<path d="M32.00 32.00L-26.47 5.97L-24.99 2.88Z" fill="#4661be" stroke="#4661be" stroke-width=".6"/>
<path d="M32.00 32.00L-25.02 2.94L-23.39 -0.06Z" fill="#4a5fbe" stroke="#4a5fbe" stroke-width=".6"/>
<path d="M32.00 32.00L-23.43 -0.00L-21.64 -2.91Z" fill="#4f5ebe" stroke="#4f5ebe" stroke-width=".6"/>
<path d="M32.00 32.00L-21.67 -2.86L-19.74 -5.67Z" fill="#535dbd" stroke="#535dbd" stroke-width=".6"/>
<path d="M32.00 32.00L-19.78 -5.62L-17.70 -8.33Z" fill="#575bbd" stroke="#575bbd" stroke-width=".6"/>
<path d="M32.00 32.00L-17.74 -8.28L-15.52 -10.87Z" fill="#5b5abc" stroke="#5b5abc" stroke-width=".6"/>
<path d="M32.00 32.00L-15.56 -10.82L-13.21 -13.30Z" fill="#5f59bb" stroke="#5f59bb" stroke-width=".6"/>
<path d="M32.00 32.00L-13.25 -13.25L-10.77 -15.61Z" fill="#6358ba" stroke="#6358ba" stroke-width=".6"/>
<path d="M32.00 32.00L-10.82 -15.56L-8.22 -17.78Z" fill="#6656b9" stroke="#6656b9" stroke-width=".6"/>
<path d="M32.00 32.00L-8.28 -17.74L-5.56 -19.82Z" fill="#6a55b8" stroke="#6a55b8" stroke-width=".6"/>
<path d="M32.00 32.00L-5.62 -19.78L-2.80 -21.71Z" fill="#6d54b7" stroke="#6d54b7" stroke-width=".6"/>
<path d="M32.00 32.00L-2.86 -21.67L0.06 -23.46Z" fill="#7053b5" stroke="#7053b5" stroke-width=".6"/>
<path d="M32.00 32.00L-0.00 -23.43L3.00 -25.05Z" fill="#7351b3" stroke="#7351b3" stroke-width=".6"/>
<path d="M32.00 32.00L2.94 -25.02L6.03 -26.49Z" fill="#7650b2" stroke="#7650b2" stroke-width=".6"/>
<path d="M32.00 32.00L5.97 -26.47L9.13 -27.77Z" fill="#794fb0" stroke="#794fb0" stroke-width=".6"/>
<path d="M32.00 32.00L9.06 -27.75L12.29 -28.89Z" fill="#7c4eae" stroke="#7c4eae" stroke-width=".6"/>
<path d="M32.00 32.00L12.22 -28.87L15.50 -29.84Z" fill="#7f4dac" stroke="#7f4dac" stroke-width=".6"/>
<path d="M32.00 32.00L15.44 -29.82L18.76 -30.62Z" fill="#814caa" stroke="#814caa" stroke-width=".6"/>
<path d="M32.00 32.00L18.69 -30.60L22.05 -31.22Z" fill="#844ba8" stroke="#844ba8" stroke-width=".6"/>
<path d="M32.00 32.00L21.99 -31.21L25.38 -31.66Z" fill="#864aa5" stroke="#864aa5" stroke-width=".6"/>
<path d="M32.00 32.00L25.31 -31.65L28.72 -31.92Z" fill="#8949a3" stroke="#8949a3" stroke-width=".6"/>
<path d="M32.00 32.00L28.65 -31.91L32.07 -32.00Z" fill="#8b48a0" stroke="#8b48a0" stroke-width=".6"/>
<path d="M32.00 32.00L32.00 -32.00L35.42 -31.91Z" fill="#8e479d" stroke="#8e479d" stroke-width=".6"/>
<path d="M32.00 32.00L35.35 -31.91L38.76 -31.64Z" fill="#90469b" stroke="#90469b" stroke-width=".6"/>
<path d="M32.00 32.00L38.69 -31.65L42.08 -31.20Z" fill="#924598" stroke="#924598" stroke-width=".6"/>
<path d="M32.00 32.00L42.01 -31.21L45.37 -30.59Z" fill="#944496" stroke="#944496" stroke-width=".6"/>
<path d="M32.00 32.00L45.31 -30.60L48.63 -29.80Z" fill="#954393" stroke="#954393" stroke-width=".6"/>
<path d="M32.00 32.00L48.56 -29.82L51.84 -28.85Z" fill="#974290" stroke="#974290" stroke-width=".6"/>
<path d="M32.00 32.00L51.78 -28.87L55.00 -27.73Z" fill="#99428d" stroke="#99428d" stroke-width=".6"/>
<path d="M32.00 32.00L54.94 -27.75L58.09 -26.44Z" fill="#9b418a" stroke="#9b418a" stroke-width=".6"/>
<path d="M32.00 32.00L58.03 -26.47L61.12 -24.99Z" fill="#9c4087" stroke="#9c4087" stroke-width=".6"/>
<path d="M32.00 32.00L61.06 -25.02L64.06 -23.39Z" fill="#9e3f84" stroke="#9e3f84" stroke-width=".6"/>
<path d="M32.00 32.00L64.00 -23.43L66.91 -21.64Z" fill="#9f3f81" stroke="#9f3f81" stroke-width=".6"/>
<path d="M32.00 32.00L66.86 -21.67L69.67 -19.74Z" fill="#a13e7e" stroke="#a13e7e" stroke-width=".6"/>
<path d="M32.00 32.00L69.62 -19.78L72.33 -17.70Z" fill="#a23d7b" stroke="#a23d7b" stroke-width=".6"/>
<path d="M32.00 32.00L72.28 -17.74L74.87 -15.52Z" fill="#a43d78" stroke="#a43d78" stroke-width=".6"/>
<path d="M32.00 32.00L74.82 -15.56L77.30 -13.21Z" fill="#a53c74" stroke="#a53c74" stroke-width=".6"/>
<path d="M32.00 32.00L77.25 -13.25L79.61 -10.77Z" fill="#a63c71" stroke="#a63c71" stroke-width=".6"/>
<path d="M32.00 32.00L79.56 -10.82L81.78 -8.22Z" fill="#a73b6e" stroke="#a73b6e" stroke-width=".6"/>
<path d="M32.00 32.00L81.74 -8.28L83.82 -5.56Z" fill="#a83b6a" stroke="#a83b6a" stroke-width=".6"/>
<path d="M32.00 32.00L83.78 -5.62L85.71 -2.80Z" fill="#a93b67" stroke="#a93b67" stroke-width=".6"/>
<path d="M32.00 32.00L85.67 -2.86L87.46 0.06Z" fill="#aa3b63" stroke="#aa3b63" stroke-width=".6"/>
<path d="M32.00 32.00L87.43 -0.00L89.05 3.00Z" fill="#ab3a60" stroke="#ab3a60" stroke-width=".6"/>
<path d="M32.00 32.00L89.02 2.94L90.49 6.03Z" fill="#ac3a5c" stroke="#ac3a5c" stroke-width=".6"/>
<path d="M32.00 32.00L90.47 5.97L91.77 9.13Z" fill="#ac3a59" stroke="#ac3a59" stroke-width=".6"/>
<path d="M32.00 32.00L91.75 9.06L92.89 12.29Z" fill="#ad3a55" stroke="#ad3a55" stroke-width=".6"/>
<path d="M32.00 32.00L92.87 12.22L93.84 15.50Z" fill="#ad3a52" stroke="#ad3a52" stroke-width=".6"/>
<path d="M32.00 32.00L93.82 15.44L94.62 18.76Z" fill="#ae3a4e" stroke="#ae3a4e" stroke-width=".6"/>
<path d="M32.00 32.00L94.60 18.69L95.22 22.05Z" fill="#ae3b4a" stroke="#ae3b4a" stroke-width=".6"/>
<path d="M32.00 32.00L95.21 21.99L95.66 25.38Z" fill="#ae3b46" stroke="#ae3b46" stroke-width=".6"/>
<path d="M32.00 32.00L95.65 25.31L95.92 28.72Z" fill="#af3b42" stroke="#af3b42" stroke-width=".6"/>
<path d="M32.00 32.00L95.91 28.65L96.00 32.07Z" fill="#af3c3e" stroke="#af3c3e" stroke-width=".6"/>
<path d="M22 16 h20 a8 8 0 0 1 8 8 v14 a8 8 0 0 1 -8 8 h-10 l-8 7 v-7 a8 8 0 0 1 -8 -8 v-14 a8 8 0 0 1 8 -8 z" fill="#fff" fill-opacity=".94"/>
<circle cx="23" cy="31" r="3.2" fill="#af3c3a"/>
<circle cx="32" cy="31" r="3.2" fill="#1b7e2a"/>
<circle cx="41" cy="31" r="3.2" fill="#006bbb"/>
</g>
</svg>
